<svg width="190" height="40" viewBox="0 0 190 40" fill="none" xmlns="http://www.w3.org/2000/svg">
<path opacity="0.4" d="M32.2998 20C32.2998 16.5206 29.4794 13.7002 26 13.7002C22.5206 13.7002 19.7002 16.5206 19.7002 20C19.7002 23.4794 22.5206 26.2998 26 26.2998C29.4794 26.2998 32.2998 23.4794 32.2998 20Z" fill="#4A3AFF" stroke="#4A3AFF" stroke-width="0.6"/>
<path d="M20 26.9282C21.2162 27.6303 22.5957 28 24 28C25.4043 28 26.7838 27.6303 28 26.9282C29.2162 26.2261 30.2261 25.2162 30.9282 24C31.6303 22.7838 32 21.4043 32 20C32 18.5957 31.6303 17.2162 30.9282 16C30.2261 14.7838 29.2162 13.7739 28 13.0718C26.7838 12.3697 25.4043 12 24 12C22.5957 12 21.2162 12.3696 20 13.0718" stroke="#4A3AFF" stroke-width="1.2"/>
<path d="M14 20L13.5315 19.6252L13.2316 20L13.5315 20.3748L14 20ZM23 20.6C23.3314 20.6 23.6 20.3314 23.6 20C23.6 19.6686 23.3314 19.4 23 19.4V20.6ZM18 15L17.5315 14.6252L13.5315 19.6252L14 20L14.4685 20.3748L18.4685 15.3748L18 15ZM14 20L13.5315 20.3748L17.5315 25.3748L18 25L18.4685 24.6252L14.4685 19.6252L14 20ZM14 20V20.6H23V20V19.4H14V20Z" fill="#4A3AFF"/>
<path d="M50.256 24.832C51.0667 24.832 51.76 24.656 52.336 24.304C52.9227 23.9413 53.3707 23.424 53.68 22.752H55.424C55.04 23.7333 54.4427 24.512 53.632 25.088C52.832 25.664 51.8933 25.9947 50.816 26.08V26.928C51.4453 26.9173 51.9467 27.0507 52.32 27.328C52.6933 27.6053 52.88 28 52.88 28.512C52.88 29.0133 52.6987 29.4133 52.336 29.712C51.9733 30.0107 51.504 30.16 50.928 30.16H49.088V29.216H50.64C50.992 29.216 51.248 29.1627 51.408 29.056C51.5787 28.9493 51.664 28.768 51.664 28.512C51.664 28.2667 51.5787 28.0907 51.408 27.984C51.248 27.8773 50.992 27.824 50.64 27.824H49.84V26.08C48.8693 26.016 47.9893 25.7387 47.2 25.248C46.4213 24.7467 45.808 24.08 45.36 23.248C44.912 22.4053 44.688 21.4613 44.688 20.416C44.688 19.328 44.9333 18.352 45.424 17.488C45.9147 16.6133 46.5813 15.9307 47.424 15.44C48.2773 14.9493 49.2213 14.704 50.256 14.704C51.472 14.704 52.5333 14.9973 53.44 15.584C54.3467 16.1707 55.008 17.0027 55.424 18.08H53.68C53.3707 17.408 52.9227 16.8907 52.336 16.528C51.76 16.1653 51.0667 15.984 50.256 15.984C49.4773 15.984 48.7787 16.1653 48.16 16.528C47.5413 16.8907 47.056 17.408 46.704 18.08C46.352 18.7413 46.176 19.52 46.176 20.416C46.176 21.3013 46.352 22.08 46.704 22.752C47.056 23.4133 47.5413 23.9253 48.16 24.288C48.7787 24.6507 49.4773 24.832 50.256 24.832ZM59.0474 17.232V26H57.5914V17.232H59.0474ZM66.1049 26L64.0249 22.736L62.0249 26H60.5049L63.3369 21.648L60.5049 17.232H62.1529L64.2329 20.48L66.2169 17.232H67.7369L64.9209 21.568L67.7529 26H66.1049ZM70.6411 17.232V26H69.1851V17.232H70.6411ZM79.4266 23.616C79.4266 24.2987 79.1706 24.8747 78.6586 25.344C78.1466 25.8027 77.464 26.064 76.6106 26.128V26.928C77.24 26.9173 77.7413 27.0507 78.1146 27.328C78.488 27.6053 78.6746 28 78.6746 28.512C78.6746 29.0133 78.4933 29.4133 78.1306 29.712C77.768 30.0107 77.2986 30.16 76.7226 30.16H74.8826V29.216H76.4346C76.7866 29.216 77.0426 29.1627 77.2026 29.056C77.3733 28.9493 77.4586 28.768 77.4586 28.512C77.4586 28.2667 77.3733 28.0907 77.2026 27.984C77.0426 27.8773 76.7866 27.824 76.4346 27.824H75.6346V26.112C74.7706 26.016 74.0666 25.7227 73.5226 25.232C72.9786 24.7413 72.6853 24.1387 72.6426 23.424H74.1466C74.1893 23.8613 74.392 24.2187 74.7546 24.496C75.128 24.7733 75.6133 24.912 76.2106 24.912C76.7653 24.912 77.2026 24.7893 77.5226 24.544C77.8426 24.2987 78.0026 23.9893 78.0026 23.616C78.0026 23.232 77.832 22.9493 77.4906 22.768C77.1493 22.576 76.6213 22.3893 75.9066 22.208C75.256 22.0373 74.7226 21.8667 74.3066 21.696C73.9013 21.5147 73.5493 21.2533 73.2506 20.912C72.9626 20.56 72.8186 20.1013 72.8186 19.536C72.8186 19.088 72.952 18.6773 73.2186 18.304C73.4853 17.9307 73.864 17.6373 74.3546 17.424C74.8453 17.2 75.4053 17.088 76.0346 17.088C77.0053 17.088 77.7893 17.3333 78.3866 17.824C78.984 18.3147 79.304 18.9867 79.3466 19.84H77.8906C77.8586 19.3813 77.672 19.0133 77.3306 18.736C77 18.4587 76.552 18.32 75.9866 18.32C75.464 18.32 75.048 18.432 74.7386 18.656C74.4293 18.88 74.2746 19.1733 74.2746 19.536C74.2746 19.824 74.3653 20.064 74.5466 20.256C74.7386 20.4373 74.9733 20.5867 75.2506 20.704C75.5386 20.8107 75.9333 20.9333 76.4346 21.072C77.064 21.2427 77.576 21.4133 77.9706 21.584C78.3653 21.744 78.7013 21.9893 78.9786 22.32C79.2666 22.6507 79.416 23.0827 79.4266 23.616Z" fill="#170F49"/>
</svg>
