<svg width="28" height="28" viewBox="0 0 28 28" fill="none" xmlns="http://www.w3.org/2000/svg">
<path d="M14.1405 14.9112C14.0588 14.8995 13.9538 14.8995 13.8605 14.9112C11.8072 14.8412 10.1738 13.1612 10.1738 11.0962C10.1738 8.98453 11.8772 7.26953 14.0005 7.26953C16.1122 7.26953 17.8272 8.98453 17.8272 11.0962C17.8155 13.1612 16.1938 14.8412 14.1405 14.9112Z" stroke="#313756" stroke-width="1.5" stroke-linecap="round" stroke-linejoin="round"/>
<path d="M21.8614 22.6084C19.7848 24.51 17.0314 25.665 13.9981 25.665C10.9648 25.665 8.21143 24.51 6.13477 22.6084C6.25143 21.5117 6.95143 20.4384 8.19977 19.5984C11.3964 17.475 16.6231 17.475 19.7964 19.5984C21.0448 20.4384 21.7448 21.5117 21.8614 22.6084Z" stroke="#313756" stroke-width="1.5" stroke-linecap="round" stroke-linejoin="round"/>
<path d="M14.0026 25.6693C20.4459 25.6693 25.6693 20.4459 25.6693 14.0026C25.6693 7.55928 20.4459 2.33594 14.0026 2.33594C7.55928 2.33594 2.33594 7.55928 2.33594 14.0026C2.33594 20.4459 7.55928 25.6693 14.0026 25.6693Z" stroke="#313756" stroke-width="1.5" stroke-linecap="round" stroke-linejoin="round"/>
</svg>
