<svg width="25" height="26" viewBox="0 0 25 26" fill="none" xmlns="http://www.w3.org/2000/svg">
<path d="M19.75 7.98438C17.2525 7.73687 14.74 7.60938 12.235 7.60938C10.75 7.60938 9.265 7.68438 7.78 7.83438L6.25 7.98438" stroke="#4A3AFF" stroke-width="1.5" stroke-linecap="round" stroke-linejoin="round"/>
<path opacity="0.34" d="M10.375 7.2275L10.54 6.245C10.66 5.5325 10.75 5 12.0175 5H13.9825C15.25 5 15.3475 5.5625 15.46 6.2525L15.625 7.2275" stroke="#4A3AFF" stroke-width="1.5" stroke-linecap="round" stroke-linejoin="round"/>
<path d="M18.1383 10.3555L17.6508 17.908C17.5683 19.0855 17.5008 20.0005 15.4083 20.0005H10.5933C8.50078 20.0005 8.43328 19.0855 8.35078 17.908L7.86328 10.3555" stroke="#4A3AFF" stroke-width="1.5" stroke-linecap="round" stroke-linejoin="round"/>
<path opacity="0.34" d="M11.7461 15.875H14.2436" stroke="#4A3AFF" stroke-width="1.5" stroke-linecap="round" stroke-linejoin="round"/>
<path opacity="0.34" d="M11.125 12.875H14.875" stroke="#4A3AFF" stroke-width="1.5" stroke-linecap="round" stroke-linejoin="round"/>
</svg>
